<?xml version="1.0" encoding="utf-8"?>
<!-- Generator: Adobe Illustrator 26.5.0, SVG Export Plug-In . SVG Version: 6.00 Build 0)  -->
<svg version="1.1" id="Layer_1" xmlns="http://www.w3.org/2000/svg" xmlns:xlink="http://www.w3.org/1999/xlink" x="0px" y="0px"
	 viewBox="0 0 1024 1024" style="enable-background:new 0 0 1024 1024;" xml:space="preserve">
<style type="text/css">
	.st0{fill:#FFFFFF;}
</style>
<g id="icon">
</g>
<path class="st0" d="M781.5,67.2c-283.7-186.3-673.3,38.1-614,389.6v4.2l-93.1,127c-16.9,21.2-8.5,55,21.2,63.5l76.2,29.6v97.4
	c0,63.5,50.8,114.3,114.3,114.3h67.7v38.1c0,50.8,42.3,93.1,93.1,93.1h300.6c25.4,0,50.8-12.7,67.7-29.6s25.4-46.6,25.4-72
	l-8.5-110.1c-4.2-55,8.5-110.1,38.1-160.9c25.4-42.3,46.6-93.1,67.7-148.2C993.2,333.9,933.9,164.5,781.5,67.2L781.5,67.2z
	 M853.5,469.4c-16.9,50.8-38.1,97.4-59.3,135.5c-38.1,67.7-55,139.7-50.8,211.7l8.5,110.1c0,4.2-4.2,8.5-8.5,8.5H442.7
	c-4.2,0-8.5-4.2-8.5-8.5v-80.4c0-25.4-16.9-42.3-42.3-42.3H286.1c-16.9,0-29.6-12.7-29.6-29.6V672.7c0-29.6-16.9-55-42.3-72
	c-4.2-4.2-4.2-4.2-38.1-12.7c63.5-88.9,63.5-84.7,63.5-84.7c12.7-16.9,12.7-42.3,12.7-63.5C205.6,151.8,518.9-4.8,735,134.9
	C853.5,215.4,900.1,338.1,853.5,469.4L853.5,469.4z"/>
<path class="st0" d="M447,393.2l46.6-46.6c16.9-16.9,16.9-42.3,0-59.3s-42.3-16.9-59.3,0l-76.2,76.2c-16.9,16.9-16.9,42.3,0,59.3
	l76.2,76.2c16.9,16.9,42.3,16.9,59.3,0s16.9-42.3-0.1-59.3L447,393.2L447,393.2z"/>
<path class="st0" d="M646,291.5c-16.9-16.9-42.3-16.9-59.3,0s-16.9,42.3,0,59.3l46.6,46.6L586.7,444c-16.9,16.9-16.9,42.3,0,59.3
	c16.9,17,42.3,16.9,59.3,0l76.2-76.3c16.9-16.9,16.9-42.3,0-59.3L646,291.5L646,291.5z"/>
</svg>
